# xmcd
#
# Track frame offsets:
#	150
#	11850
#	27645
#	45897
#	61044
#	78419
#	100434
#	112128
#	127963
#	146277
#	161460
#	178954
#
# Disc length: 2679 seconds
#
# Revision: 0
# Processed by: cddbd v1.5.2PL0 Copyright (c) Steve Scherf et al.
# Submitted via: audiograbber 1.83.01
#
DISCID=9c0a750c
DTITLE=Various Artist - CB20088 Hot Hits Vol. 88
DYEAR=1900
DGENRE=Other
TTITLE0=Dwight Yoakam - Crazy Little Thing Called Love (Vocals)
TTITLE1=Alabama - God Must Have Spent A Little More Time On You (Vocals)
TTITLE2=Vince Gill and Patty Loveless - My Kind Of Woman/ My Kind Of Man (Vocals)
TTITLE3=Marty Stuart - Red, Red Wine And Cheatin' Songs (Vocals)
TTITLE4=David Ball - Watching My Baby Not Come Back (Vocals)
TTITLE5=Lionel Cartwright - Miles and Years (Vocals)
TTITLE6=Dwight Yoakam - Crazy Little Thing Called Love
TTITLE7=Alabama - God Must Have Spent A Little More Time On You
TTITLE8=Vince Gill and Patty Loveless - My Kind Of Woman/ My Kind Of Man
TTITLE9=Marty Stuart - Red, Red Wine And Cheatin' Songs
TTITLE10=David Ball - Watching My Baby Not Come Back
TTITLE11=Lionel Cartwright - Miles and Years
EXTD=
EXTT0=
EXTT1=
EXTT2=
EXTT3=
EXTT4=
EXTT5=
EXTT6=
EXTT7=
EXTT8=
EXTT9=
EXTT10=
EXTT11=
PLAYORDER=
